<svg xmlns="http://www.w3.org/2000/svg" xlink="http://www.w3.org/1999/xlink" viewBox="0 0 42 20" id="svg2421992746"><path d="M 35.293 13.535 C 33.341 15.488 30.175 15.488 28.223 13.535 L 24.687 10 L 28.222 6.465 C 29.483 5.192 31.329 4.692 33.06 5.153 C 34.791 5.614 36.143 6.966 36.605 8.697 C 37.066 10.428 36.566 12.274 35.293 13.535 Z M 38.829 2.929 C 34.924 -0.976 28.592 -0.976 24.687 2.929 L 14.081 13.535 C 12.651 14.965 10.5 15.393 8.632 14.619 C 6.763 13.846 5.545 12.022 5.545 10 C 5.545 7.978 6.763 6.154 8.632 5.381 C 10.5 4.607 12.651 5.035 14.081 6.465 L 17.616 2.929 C 13.711 -0.976 7.379 -0.976 3.474 2.929 C -0.431 6.834 -0.431 13.166 3.474 17.071 C 7.379 20.976 13.711 20.976 17.616 17.071 L 21.151 13.535 L 24.687 17.071 C 28.592 20.976 34.924 20.976 38.829 17.071 C 42.734 13.166 42.734 6.834 38.829 2.929 Z" fill="currentColor"/></svg>