<svg xmlns="http://www.w3.org/2000/svg" xlink="http://www.w3.org/1999/xlink" viewBox="0 0 23 23" id="svg4283891955"><path d="M 11.5 0 L 11.67 0.46 C 12.75 3.378 13.29 4.837 14.15 6.06 C 14.912 7.144 15.856 8.088 16.94 8.85 C 18.163 9.71 19.622 10.25 22.54 11.33 L 23 11.5 L 22.54 11.67 C 19.622 12.75 18.163 13.29 16.94 14.15 C 15.856 14.912 14.912 15.856 14.15 16.94 C 13.29 18.163 12.75 19.622 11.67 22.54 L 11.5 23 L 11.33 22.54 C 10.25 19.622 9.71 18.163 8.85 16.94 C 8.088 15.856 7.144 14.912 6.06 14.15 C 4.837 13.29 3.378 12.75 0.46 11.67 L 0 11.5 L 0.46 11.33 C 3.378 10.25 4.837 9.71 6.06 8.85 C 7.144 8.088 8.088 7.144 8.85 6.06 C 9.71 4.837 10.25 3.378 11.33 0.46 Z" fill="#ffffff"/></svg>